<svg xmlns="http://www.w3.org/2000/svg" xmlns:xlink="http://www.w3.org/1999/xlink" width="311" height="38" viewBox="0 0 311 38">
    <defs>
        <path id="7p2f27pu1a" d="M0.102 0.19L14.22 0.19 14.22 19.484 0.102 19.484z"/>
    </defs>
    <g fill="none" fill-rule="evenodd">
        <g>
            <g>
                <g>
                    <path fill="#182E68" d="M8.787 22.993c-.164.276-3.728 8.94-3.59 10.03.107.857.946 2.56 1.664 2.39.259-.062 3.13-5.055 4.592-7.696.05.034.209.2.26.233-1.68 2.965-4.427 7.353-4.447 7.687-.035.596 2.476.42 3.078.146 1.18-.537 3.893-4.796 4.164-5.231L8.647 19.94c-.103.678-.07 1.968.14 3.052M9.715 17.992c-.421-.08-.816.016-1.156.25-.233.161-.414.352-.522.591l.142.258c.07-.276.252-.5.507-.675.291-.201.626-.284.987-.216 0 0 .026.005.08.01.098.007.07-.192-.038-.218" transform="translate(-154 -25) translate(.22 -1) translate(154 26)"/>
                    <path fill="#182E68" d="M9.958 18.333c-.42-.08-.81.018-1.15.252-.253.175-.441.398-.542.664l.14.256c.054-.307.25-.555.529-.747.291-.2.62-.285.98-.216 0 0 .023.005.073.011.098.01.079-.194-.03-.22" transform="translate(-154 -25) translate(.22 -1) translate(154 26)"/>
                    <path fill="#182E68" d="M10.227 18.721c-.431-.073-.82.019-1.16.253-.264.182-.463.422-.56.701l.143.266c.047-.319.225-.596.512-.794.292-.2.67-.28.957-.217l.114.009c.098.007.066-.192-.006-.218M14.113 25.84c-.434-.082-.84.017-1.192.26-.24.165-.427.38-.537.628l.15.267c.072-.285.255-.536.518-.717.3-.207.645-.293 1.018-.222 0 0 .027.005.082.01.102.007.074-.198-.04-.225" transform="translate(-154 -25) translate(.22 -1) translate(154 26)"/>
                    <path fill="#182E68" d="M14.364 26.193c-.434-.083-.835.018-1.186.26-.26.18-.455.419-.56.692l.151.288c.055-.318.252-.604.54-.802.3-.207.64-.294 1.011-.223 0 0 .023.005.075.011.1.011.081-.2-.031-.226" transform="translate(-154 -25) translate(.22 -1) translate(154 26)"/>
                    <path fill="#182E68" d="M14.612 26.584c-.396-.076-.832.019-1.182.26-.273.188-.479.465-.578.753l.158.265c.048-.328.258-.635.554-.839.3-.207.689-.289 1.012-.224 0 0 .024.005.079.01.101.007.029-.198-.043-.225M22.101 9.227c.411.002.744-.299.744-.668 0-.369-.333-.66-.744-.669-.405-.007-.744.3-.744.669 0 .369.35.666.744.668" transform="translate(-154 -25) translate(.22 -1) translate(154 26)"/>
                    <path fill="#182E68" d="M23.81 18.18c-.157.964-.611 2.096-1.028 2.84l-.222-3.182 1.063-2.151c.118.754.341 1.537.186 2.493zM11.69 12.5l-2.309 1.748c.548-1.169.996-2.027 1.678-2.84.413-.491 1.204-1.188 1.204-1.188l-.573 2.28zM0 .393l8.856 15.59c.111-.347.24-.7.354-1.006l2.776-2.067.667-2.807c.553-.508 1.521-1.254 1.58-1.311 2.028-1.947 3.458-2.645 6.119-2.582 3.465.082 5.519.79 6.6 2.617 2.998-.025 5.872.937 5.795 1.075l-1.077.07c.201-.037-3.377.178-4.54.112-.501.825-2.42 1.373-4.951 1.942.726 1.077 1.018 1.58 1.29 3.395l-1.37 2.538.31 3.742c-1.34 2.548-3.473 5.006-5.666 5.804l-.75.62 4.612 9.122L41.204.393H0zM73.597 19.391L73.57 3.159 65.63 16.871 64.952 16.871 57.013 3.214 57.013 19.391 55.658 19.391 55.658.422 56.823.422 65.305 15.083 73.786.422 74.925.422 74.952 19.391zM93.839 18.145L93.839 19.391 80.75 19.391 80.75.422 93.432.422 93.432 1.669 82.132 1.669 82.132 9.148 92.24 9.148 92.24 10.367 82.132 10.367 82.132 18.145zM102.51 1.669L95.681 1.669 95.681.422 110.72.422 110.72 1.669 103.891 1.669 103.891 19.391 102.51 19.391zM124.405 12.888L119.419 1.94l-4.96 10.948h9.946zm.515 1.165h-11.002l-2.412 5.338h-1.49L118.74.423h1.382l8.726 18.968h-1.49l-2.44-5.338zM139.688 18.145c5.365 0 8.807-3.415 8.807-8.238 0-4.824-3.442-8.238-8.807-8.238h-6.016v16.476h6.016zM132.29.422h7.506c6.016 0 10.08 3.957 10.08 9.485s-4.064 9.484-10.08 9.484h-7.506V.422zM165.62 12.888L160.634 1.94l-4.96 10.948h9.946zm.515 1.165h-11.002l-2.412 5.338h-1.49L159.956.423h1.383l8.725 18.968h-1.49l-2.44-5.338zM176.188 1.669L169.359 1.669 169.359.422 184.399.422 184.399 1.669 177.57 1.669 177.57 19.391 176.188 19.391zM198.083 12.888L193.097 1.94l-4.959 10.948h9.945zm.515 1.165h-11.002l-2.412 5.338h-1.49L192.42.423h1.382l8.725 18.968h-1.49l-2.439-5.338zM231.793.422L225.398 19.391 223.284 19.391 217.729 3.214 212.147 19.391 210.06 19.391 203.665.422 205.724.422 211.198 16.736 216.862.422 218.731.422 224.314 16.817 229.869.422zM251.52 9.907c0-4.526-3.387-7.859-7.94-7.859-4.58 0-7.994 3.333-7.994 7.859 0 4.525 3.415 7.859 7.994 7.859 4.553 0 7.94-3.334 7.94-7.86m-17.912 0c0-5.527 4.227-9.646 9.972-9.646 5.691 0 9.945 4.092 9.945 9.647 0 5.555-4.254 9.647-9.945 9.647-5.745 0-9.972-4.119-9.972-9.647M270.868 6.926c0-3.035-2.006-4.77-5.8-4.77h-5.04v9.512h5.04c3.794 0 5.8-1.761 5.8-4.742zm.108 12.465l-4.336-6.097c-.488.054-.975.082-1.517.082h-5.095v6.015h-2.005V.422h7.1c4.823 0 7.75 2.44 7.75 6.504 0 2.981-1.572 5.068-4.336 5.962l4.634 6.503h-2.195zM283.495 10.476L279.62 14.405 279.62 19.391 277.615 19.391 277.615.422 279.62.422 279.62 11.885 290.757.422 293.061.422 284.85 9.013 293.63 19.391 291.245 19.391z" transform="translate(-154 -25) translate(.22 -1) translate(154 26)"/>
                    <g transform="translate(-154 -25) translate(.22 -1) translate(154 26) translate(294.557 .07)">
                        <mask id="yrsszfiulb" fill="#fff">
                            <use xlink:href="#7p2f27pu1a"/>
                        </mask>
                        <path fill="#182E68" d="M.102 17.018l.785-1.544c1.355 1.328 3.767 2.303 6.26 2.303 3.55 0 5.095-1.49 5.095-3.36 0-5.203-11.68-2.005-11.68-9.024C.562 2.602 2.73.19 7.554.19c2.14 0 4.363.623 5.88 1.68l-.677 1.6C11.13 2.411 9.234 1.896 7.554 1.896c-3.469 0-5.013 1.545-5.013 3.442 0 5.203 11.679 2.06 11.679 8.97 0 2.79-2.222 5.175-7.073 5.175-2.845 0-5.636-1.002-7.045-2.466" mask="url(#yrsszfiulb)"/>
                    </g>
                </g>
            </g>
        </g>
    </g>
</svg>
